<?xml version="1.0" encoding="iso-8859-1"?>
<!-- Uploaded to: SVG Repo, www.svgrepo.com, Generator: SVG Repo Mixer Tools -->
<svg height="800px" width="800px" version="1.1" id="Layer_1" xmlns="http://www.w3.org/2000/svg" xmlns:xlink="http://www.w3.org/1999/xlink" 
	 viewBox="0 0 496 496" xml:space="preserve">
<path style="fill:#002F83;" d="M168.73,292.408C170.45,281.68,179.722,272,190.666,272h45.608
	c89.648,0,159.808-34.352,180.304-138.824c0.6-3.096,1.6-8.16,1.6-8.16c5.824-38.648-0.048-64.344-21.096-88.136
	C373.898,10.68,332.026,0,278.434,0H122.938c-10.968,0-20.288,7.808-22.016,18.52L36.17,425.312
	C34.882,433.352,41.162,440,49.37,440h96.008l24.104-152.032L168.73,292.408z"/>
<g>
	<path style="fill:#0B479E;" d="M397.082,37.216c-6.616-7.488-14.904-13.608-24.424-18.736L49.546,341.6l-12.032,75.768
		L405.93,48.96C403.306,44.976,400.466,41.032,397.082,37.216z"/>
	<polygon style="fill:#0B479E;" points="232.73,0 153.506,0 94.498,58.88 79.538,153.144 	"/>
	<polygon style="fill:#0B479E;" points="105.154,440 145.378,440 152.978,392.184 	"/>
	<path style="fill:#0B479E;" d="M276.986,269.312c71.648-9.36,121.352-43.304,138.944-132.936c0.336-1.76,1.168-5.536,1.512-7.52
		L276.986,269.312z"/>
</g>
<path style="fill:#1558BA;" d="M100.922,41.192C102.65,30.472,111.97,24,122.938,24h155.496c53.592,0,95.472,9.792,118.648,35.992
	c13.904,15.736,21.072,31.912,22.736,52.664c2.48-31.224-3.496-53.928-23.288-76.216C373.298,10.28,332.026,0,278.434,0H122.938
	c-10.968,0-20.288,7.808-22.016,18.52L36.17,425.88c-0.528,3.336,0.472,6.04,2.128,8.64L100.922,41.192z"/>
<g>
	<path style="fill:#8F9FB5;" d="M380.442,256.912c-6.232,5.336-12.776,10.336-19.816,14.744l50.656,50.656
		c5.96-5.336,11.52-11.288,16.552-18.016L380.442,256.912z"/>
	<path style="fill:#8F9FB5;" d="M209.386,304h-14.032l-2.808,17.224l71.912,71.648l2.024-12.832l0.984-5.36
		c0.56-3.528,2.072-6.24,4.24-8.84L209.386,304z"/>
	<path style="fill:#8F9FB5;" d="M262.498,302.32c-8.504,0.696-17.184,1.68-26.224,1.68h-7.168l55.528,55.848
		c0.68-0.064,1.344,0.152,2.048,0.152h12.12c6.616,0,13.064-0.904,19.424-1.376L262.498,302.32z"/>
	<path style="fill:#8F9FB5;" d="M426.53,194.44c-3.592,7.944-7.592,15.472-12,22.568l37.32,37.312
		c1.76-6.04,3.368-12.304,4.672-18.976c0.632-3.184,1.072-6.28,1.536-9.384L426.53,194.44z"/>
	<path style="fill:#8F9FB5;" d="M182.474,384.64l-4.712,29.848l70.872,70.872c0.832-1.696,1.496-3.496,1.808-5.44l0.792-4.104
		l3.08-19.352L182.474,384.64z"/>
	<path style="fill:#8F9FB5;" d="M432.346,180.52l27.528,27.536c0.624-14.608-1.088-27.896-5.208-39.776l-14.288-14.288
		C438.082,163.224,435.458,172.128,432.346,180.52z"/>
	<path style="fill:#8F9FB5;" d="M406.642,228.832c-4.888,6.656-10.288,12.776-16.008,18.568l45.072,45.056
		c4.208-7.104,7.928-14.92,11.192-23.376L406.642,228.832z"/>
	<path style="fill:#8F9FB5;" d="M348.018,278.776c-7.624,3.96-15.712,7.4-24.16,10.392l54.4,54.4
		c7.808-3.48,15.192-7.616,22.096-12.472L348.018,278.776z"/>
	<polygon style="fill:#8F9FB5;" points="167.666,478.184 164.858,496 185.498,496 	"/>
	<path style="fill:#8F9FB5;" d="M175.066,431.512l-4.704,29.744L205.202,496h26c2.52,0,4.944-0.4,7.168-1.28L175.066,431.512z"/>
	<polygon style="fill:#8F9FB5;" points="189.866,337.752 185.162,367.6 257.018,439.456 261.762,409.64 	"/>
	<path style="fill:#8F9FB5;" d="M308.858,293.896c-9.128,2.496-18.664,4.48-28.616,5.936l55.696,55.704
		c9.736-1.512,19.104-3.664,28.008-6.56L308.858,293.896z"/>
</g>
</svg>